<?xml version="1.0" encoding="UTF-8"?>
<svg id="_圖層_2" data-name="圖層 2" xmlns="http://www.w3.org/2000/svg" xmlns:xlink="http://www.w3.org/1999/xlink" viewBox="0 0 49.67 57.39">
  <defs>
    <style>
      .cls-1 {
        opacity: .5;
      }

      .cls-1, .cls-2 {
        fill: #fff;
      }

      .cls-3 {
        stroke: #fff;
        stroke-linecap: round;
        stroke-linejoin: round;
      }

      .cls-3, .cls-4 {
        fill: none;
      }

      .cls-5 {
        clip-path: url(#clippath);
      }

      .cls-2 {
        opacity: .2;
      }
    </style>
    <clipPath id="clippath">
      <path class="cls-4" d="M42.78,25.5c0-9.96-8.08-18.04-18.04-18.04S6.7,15.54,6.7,25.5c0,9.07,7.6,16.55,16.32,17.83v-13.23c0-1.63,.43-2.97,2.06-2.97l1.89,.35c1.63,0,1.6,1.99,1.6,3.62v12.53c7.2-2.37,14.21-10.13,14.21-18.13Z"/>
    </clipPath>
  </defs>
  <g id="_圖層_1-2" data-name="圖層 1">
    <g>
      <path class="cls-3" d="M4.34,37.96c-2.43-3.79-3.84-8.29-3.84-13.13C.5,11.4,11.4,.5,24.84,.5s24.34,10.9,24.34,24.34c0,3.31-.66,6.47-1.86,9.35"/>
      <g class="cls-5">
        <circle class="cls-2" cx="24.98" cy="25.4" r="17.57"/>
        <circle class="cls-1" cx="24.98" cy="25.4" r="13.39"/>
        <circle class="cls-1" cx="24.98" cy="25.4" r="8.07"/>
        <circle class="cls-1" cx="24.98" cy="25.4" r="5.41"/>
      </g>
      <path class="cls-3" d="M43.24,46.63c.02-2.73-.05-5.48-.05-8.19,0-1.37-1.17-2.84-2.5-2.5-1.76,.45-2.5,4.7-2.5,6.07v-4.88c0-1.37-1.15-2.77-2.5-2.5-2.11,.42-2.5,4.7-2.5,6.07v-4c0-1.37-1.12-2.5-2.5-2.5s-2.5,1.12-2.5,2.5v-7.09c0-1.37-1.12-2.5-2.5-2.5s-2.5,1.12-2.5,2.5v12.55c-.98-.88-2.02-1.7-3.11-2.46-1.35-.93-3.24-.51-4.1,.81-.86,1.32-.55,2.95,.58,3.74,2.42,1.67,4.53,3.7,6.29,6.02,.29,.42,3.58,5.22,3.67,6.62,0,0,15.94-.89,15.94-.89,.13,0,.38-2.55,.4-2.71,.26-2.21,.35-4.43,.37-6.66Z"/>
    </g>
  </g>
</svg>