<?xml version="1.0" encoding="UTF-8"?>
<svg id="_圖層_2" data-name="圖層 2" xmlns="http://www.w3.org/2000/svg" viewBox="0 0 39.87 39.87">
  <defs>
    <style>
      .cls-1 {
        fill: #fff;
      }
    </style>
  </defs>
  <g id="_圖層_1-2" data-name="圖層 1">
    <g>
      <path class="cls-1" d="M31.09,19.32c0,.56,.45,1.01,1.01,1.01s1.01-.45,1.01-1.01c.01-.19,.02-.42,.02-.65,0-5.93-4.6-10.78-10.42-11.19h-.04s0,0,0,0c-.01,0-.03,0-.05,0-.56,0-1.01,.45-1.01,1.01s.42,.98,.96,1.01h0c4.78,.31,8.54,4.27,8.54,9.1,0,.25-.01,.5-.03,.75v-.03Z"/>
      <path class="cls-1" d="M22.59,2.22h0c.61,.03,14.88,.93,14.88,17.09,0,.56,.45,1.01,1.01,1.01s1.01-.45,1.01-1.01c.02-.32,.03-.7,.03-1.08C39.53,8.69,32.13,.87,22.75,.2h-.06s-.03,0-.04,0c-.55,0-.99,.42-1.02,.96h0s0,.04,0,.05c0,.54,.43,.99,.96,1.01Z"/>
      <path class="cls-1" d="M38.85,27.36s.01,.02,.02,.03c0,0,0,0,0,0l-.02-.03Z"/>
      <path class="cls-1" d="M39.73,29.82h0c-.15-.9-.44-1.71-.87-2.43-.15-.25-.41-.43-.7-.48h0s-12.13-1.93-12.13-1.93c-.04,0-.09-.01-.14-.01h-.01s0,0,0,0c-.28,0-.53,.11-.71,.29-.91,.92-1.62,2.05-2.02,3.32l-.02,.06c-5.43-2.22-9.66-6.45-11.83-11.74l-.05-.14c1.32-.42,2.45-1.13,3.37-2.04,.18-.18,.3-.44,.3-.72,0-.06,0-.11-.01-.16h0S12.96,1.71,12.96,1.71c-.05-.3-.23-.56-.47-.71h0c-.68-.41-1.48-.71-2.33-.85h-.04c-.43-.1-.92-.16-1.42-.16-.03,0-.07,0-.1,0h0C3.86,.03,.03,3.86,0,8.59H0c0,8.1,3.09,15.48,8.15,21.03l-.04,.05,.32,.24c5.71,6.11,13.83,9.94,22.84,9.95h0c4.74-.03,8.57-3.86,8.6-8.59h0v-.09c0-.47-.05-.92-.14-1.36Z"/>
      <path class="cls-1" d="M39.73,29.78s0,.03,0,.04h0v-.04Z"/>
    </g>
  </g>
</svg>